<svg width="2304" height="512" viewBox="0 0 2304 512" fill="none" xmlns="http://www.w3.org/2000/svg">
<path fill-rule="evenodd" clip-rule="evenodd" d="M383.999 312.886V170.664H455.11V295.108C455.11 296.877 455.368 298.585 455.849 300.198C458.613 309.467 467.79 314.195 477.024 318.954C481.859 321.445 486.71 323.945 490.665 327.108C494.62 323.945 499.471 321.445 504.306 318.954C513.541 314.195 522.717 309.467 525.482 300.198C525.963 298.585 526.221 296.877 526.221 295.108V170.664H597.332V312.886C597.332 346.315 574.265 374.357 543.18 381.962C539.833 382.782 536.451 383.491 533.067 384.2L533.065 384.2L533.063 384.201L533.06 384.201L533.058 384.202L533.055 384.202C525.34 385.819 517.623 387.437 510.327 390.355L490.665 398.22L471.004 390.355C463.708 387.437 455.992 385.819 448.277 384.202L448.275 384.202L448.273 384.201C444.887 383.492 441.5 382.782 438.15 381.962C407.065 374.357 383.999 346.315 383.999 312.886ZM1137.78 383.997H981.332C947.903 383.997 919.862 360.931 912.256 329.846C911.436 326.494 910.726 323.107 910.016 319.719C908.399 312.004 906.781 304.288 903.863 296.992L895.999 277.331L903.863 257.669C906.782 250.373 908.399 242.657 910.016 234.942C910.725 231.555 911.436 228.167 912.256 224.815C919.862 193.731 947.903 170.664 981.332 170.664H1052.44V42.6641H1123.55V170.664V355.048C1123.55 364.477 1127.3 373.521 1133.97 380.189L1137.78 383.997ZM997.332 312.886C997.012 312.886 996.694 312.877 996.378 312.858C985.446 312.216 980.025 301.388 974.616 290.581C972.263 285.88 969.912 281.183 967.11 277.331C969.912 273.478 972.263 268.781 974.616 264.08C980.025 253.274 985.446 242.446 996.378 241.803C996.694 241.785 997.012 241.775 997.332 241.775H1052.44V277.331V312.886H997.332ZM654.221 170.664H665.762C669.799 170.664 673.716 172.038 676.868 174.56L689.776 184.886L702.685 174.56C705.837 172.038 709.753 170.664 713.79 170.664H725.332V383.997H707.554H689.776H671.999H654.221V277.331V170.664ZM799.999 42.6641H782.221V277.331V383.997H799.999H817.776H835.554H867.554L863.746 380.189C857.078 373.521 853.332 364.477 853.332 355.048V42.6641H835.554H817.776H799.999ZM1408 170.664H1479.11V355.048C1479.11 364.477 1482.86 373.521 1489.52 380.189L1493.33 383.997H1422.22L1418.41 380.189C1411.74 373.521 1408 364.477 1408 355.048V284.442C1408 270.22 1394.67 241.775 1365.33 241.775V383.997H1294.22V369.775V284.442C1294.22 270.22 1280 241.775 1251.55 241.775V369.775V383.997H1180.44V369.775V277.331V170.664H1251.55C1273.6 170.664 1289.18 199.108 1294.22 213.331V170.664H1365.33C1387.38 170.664 1402.96 199.108 1408 213.331V170.664ZM2076.24 234.943C2076.95 231.555 2077.66 228.167 2078.48 224.815C2086.08 193.731 2114.13 170.664 2147.55 170.664H2183.11H2218.67H2289.78V241.775C2289.78 265.339 2270.67 284.442 2247.11 284.442H2218.67H2176V270.22C2178.37 269.429 2180.61 268.686 2182.72 267.984C2206.97 259.932 2214.86 257.311 2217.43 252.078C2218.67 249.553 2218.67 246.42 2218.67 241.775H2165.33C2163.56 241.775 2161.85 242.033 2160.24 242.514C2150.97 245.279 2146.24 254.456 2141.49 263.69C2139 268.525 2136.5 273.376 2133.33 277.331C2136.5 281.285 2139 286.136 2141.49 290.971C2146.24 300.206 2150.97 309.382 2160.24 312.147C2161.85 312.628 2163.56 312.886 2165.33 312.886H2183.11H2289.78V355.048C2289.78 364.477 2293.52 373.521 2300.19 380.189L2304 383.997H2147.55C2114.13 383.997 2086.08 360.931 2078.48 329.846C2077.66 326.494 2076.95 323.107 2076.24 319.719C2074.62 312.004 2073 304.288 2070.09 296.992L2062.22 277.331L2070.09 257.669C2073 250.373 2074.62 242.658 2076.24 234.943ZM1916.25 437.136C1938.26 435.985 1948.44 435.452 1948.44 412.442V383.997H1877.33C1843.9 383.997 1815.86 360.931 1808.26 329.846C1807.44 326.495 1806.73 323.107 1806.02 319.72C1804.4 312.005 1802.78 304.288 1799.86 296.992L1792 277.331L1799.86 257.669C1802.78 250.373 1804.4 242.657 1806.02 234.942C1806.73 231.554 1807.44 228.167 1808.26 224.815C1815.86 193.731 1843.9 170.664 1877.33 170.664H2033.78L2029.97 174.472C2023.3 181.14 2019.55 190.184 2019.55 199.614V383.997V431.929C2019.55 447.068 2015.24 461.892 2007.11 474.664C1997.09 489.138 1980.6 497.775 1963 497.775H1948.44H1923.5C1883.98 497.775 1844.6 502.55 1806.22 511.997V469.331C1857.15 440.228 1893.19 438.343 1916.25 437.136ZM1749.33 170.664H1699.81C1695.09 170.664 1690.57 172.537 1687.24 175.871L1678.22 184.886L1669.21 175.871C1665.87 172.537 1661.35 170.664 1656.63 170.664H1607.11C1573.68 170.664 1545.64 193.731 1538.03 224.815C1537.21 228.167 1536.5 231.554 1535.79 234.942C1534.18 242.657 1532.56 250.373 1529.64 257.669L1521.78 277.331L1529.64 296.992C1532.56 304.288 1534.18 312.005 1535.79 319.72C1536.5 323.107 1537.21 326.495 1538.03 329.846C1545.64 360.931 1573.68 383.997 1607.11 383.997H1656.63C1661.35 383.997 1665.87 382.124 1669.21 378.79L1678.22 369.775L1687.24 378.79C1690.57 382.124 1695.09 383.997 1699.81 383.997H1763.55L1759.75 380.189C1753.08 373.521 1749.33 364.477 1749.33 355.048V170.664ZM1623.11 241.775C1622.79 241.775 1622.47 241.785 1622.16 241.803C1611.22 242.446 1605.8 253.274 1600.39 264.08C1598.04 268.781 1595.69 273.478 1592.89 277.331C1595.69 281.183 1598.04 285.88 1600.39 290.581C1605.8 301.388 1611.22 312.216 1622.16 312.858C1622.47 312.877 1622.79 312.886 1623.11 312.886H1678.22V277.331V241.775H1623.11ZM1892.38 241.803C1892.69 241.785 1893.01 241.775 1893.33 241.775H1948.44V277.331V312.886H1893.33C1893.01 312.886 1892.69 312.877 1892.38 312.858C1881.45 312.216 1876.03 301.388 1870.62 290.581C1868.26 285.88 1865.91 281.183 1863.11 277.331C1865.91 273.478 1868.26 268.781 1870.62 264.08C1876.03 253.274 1881.45 242.446 1892.38 241.803Z" fill="black"/>
<path fill-rule="evenodd" clip-rule="evenodd" d="M725.334 106.667C725.334 104.596 725.2 102.391 724.958 100.098C702.543 101.897 696.889 107.551 696.889 107.551L721.718 82.725C721.376 81.3447 721.018 79.9709 720.651 78.6116C715.515 59.5944 714.048 39.5003 719.46 20.5596L725.334 0C723.366 1.72191 721.235 3.55002 718.981 5.48331L718.97 5.49229C698.629 22.9395 668.304 48.9499 657.889 82.7759L682.668 107.551C682.668 107.551 676.996 101.881 654.499 100.09C654.317 102.255 654.223 104.447 654.223 106.667C654.223 119.139 658.78 129.181 667.007 135.371L673.543 140.369C679.014 144.553 683.981 149.359 688.343 154.691L689.778 156.444L691.213 154.691C695.575 149.359 700.542 144.553 706.014 140.369L712.55 135.371C720.776 129.181 725.334 119.139 725.334 106.667Z" fill="#E73331"/>
<path fill-rule="evenodd" clip-rule="evenodd" d="M327.111 142.222C325.248 161.038 309.352 170.644 290.006 170.667H213.333C170.667 170.667 156.444 195.685 156.444 226.545C156.444 239.961 162.906 252.272 171.477 261.902C175.348 242.321 192.616 227.556 213.333 227.556C236.898 227.556 256 246.658 256 270.222V312.889L152.889 312.889C132.163 312.889 114.198 301.066 105.37 283.796C102.043 277.288 99.6234 270.312 97.205 263.34C94.1813 254.623 91.1598 245.912 86.3696 238.128L71.1111 213.333L86.3696 188.538C91.1598 180.754 94.1813 172.044 97.205 163.327C99.6234 156.355 102.043 149.379 105.37 142.87C114.198 125.601 132.163 113.778 152.889 113.778H256L271.111 113.776C302.038 113.776 327.111 88.7577 327.111 57.898V0C327.092 20.5483 310.397 42.6552 289.804 42.6664L152.889 42.6667C152.788 42.6667 152.99 42.6665 152.889 42.6667C92.7209 42.6667 42.5261 85.367 30.9552 142.117C27.6688 158.235 23.8798 174.529 15.2585 188.538L0 213.333L15.2585 238.128C23.8798 252.138 27.6688 268.431 30.9552 284.55C42.5261 341.3 92.7209 384 152.889 384H256L355.556 383.999C338.123 375.283 327.111 357.466 327.111 337.976V142.222Z" fill="black"/>
</svg>
