<svg width="512" height="512" viewBox="0 0 512 512" fill="none" xmlns="http://www.w3.org/2000/svg">
<path fill-rule="evenodd" clip-rule="evenodd" d="M413.047 191.471C410.992 212.174 393.457 222.743 372.118 222.768H287.544C240.48 222.768 224.792 250.295 224.792 284.249C224.792 299.01 231.92 312.555 241.375 323.151C245.644 301.607 264.692 285.361 287.544 285.361C313.537 285.361 334.608 306.379 334.608 332.306V379.25L220.87 379.25C198.008 379.25 178.192 366.242 168.455 347.241C164.785 340.079 162.116 332.404 159.448 324.733C156.113 315.142 152.78 305.558 147.496 296.994L130.665 269.712L147.496 242.431C152.78 233.867 156.113 224.282 159.448 214.691C162.116 207.021 164.785 199.346 168.455 192.184C178.192 173.183 198.008 160.174 220.87 160.174H334.608L351.276 160.173C385.39 160.173 413.047 132.646 413.047 98.6917V34.9883C413.026 57.597 394.611 81.9205 371.895 81.9328L220.87 81.9331C220.982 81.9329 220.759 81.9331 220.87 81.9331C154.502 81.9331 99.1342 128.915 86.3709 191.355C82.7458 209.09 78.5663 227.017 69.0566 242.431L52.2256 269.712L69.0566 296.994C78.5663 312.408 82.7458 330.335 86.3709 348.07C99.1342 410.51 154.502 457.492 220.87 457.492H334.608L444.423 457.491C425.194 447.901 413.047 428.298 413.047 406.853V191.471Z" fill="#E73331"/>
</svg>
